<svg width="24" height="24" viewBox="0 0 24 24" fill="none" xmlns="http://www.w3.org/2000/svg">
<path d="M4 14.8851H3.25H4ZM6.73291 18.0834L6.83592 17.3405H6.83592L6.73291 18.0834ZM16.9193 18.0834L16.8162 17.3405L16.9193 18.0834ZM6.48914 8.08696C6.48914 5.13944 8.87857 2.75 11.8261 2.75V1.25C8.05015 1.25 4.98914 4.31101 4.98914 8.08696H6.48914ZM6.48914 10.1795V8.08696H4.98914V10.1795H6.48914ZM4.75 14.8851C4.75 14.4037 4.88171 13.9552 5.11062 13.5714L3.82231 12.8031C3.4587 13.4128 3.25 14.1257 3.25 14.8851H4.75ZM6.83592 17.3405C5.63629 17.1742 4.75 16.1313 4.75 14.8851H3.25C3.25 16.8448 4.65411 18.5524 6.6299 18.8263L6.83592 17.3405ZM11.8261 17.772C10.3341 17.772 8.40652 17.5583 6.83592 17.3405L6.6299 18.8263C8.21268 19.0458 10.2254 19.272 11.8261 19.272V17.772ZM16.8162 17.3405C15.2457 17.5583 13.3181 17.772 11.8261 17.772V19.272C13.4268 19.272 15.4395 19.0458 17.0223 18.8263L16.8162 17.3405ZM18.9022 14.8851C18.9022 16.1313 18.0159 17.1742 16.8162 17.3405L17.0223 18.8263C18.9981 18.5524 20.4022 16.8448 20.4022 14.8851H18.9022ZM18.5416 13.5714C18.7705 13.9552 18.9022 14.4037 18.9022 14.8851H20.4022C20.4022 14.1257 20.1935 13.4128 19.8299 12.8031L18.5416 13.5714ZM17.163 8.08696V10.1795H18.663V8.08696H17.163ZM11.8261 2.75C14.7736 2.75 17.163 5.13944 17.163 8.08696H18.663C18.663 4.31101 15.602 1.25 11.8261 1.25V2.75ZM19.8299 12.8031C19.521 12.2851 19.2404 11.8701 19.0091 11.4066C18.7876 10.9629 18.663 10.567 18.663 10.1795H17.163C17.163 10.8924 17.3931 11.5278 17.667 12.0766C17.9311 12.6056 18.2869 13.1443 18.5416 13.5714L19.8299 12.8031ZM4.98914 10.1795C4.98914 10.567 4.86462 10.9629 4.6431 11.4066C4.41176 11.8701 4.13121 12.2851 3.82231 12.8031L5.11062 13.5714C5.36531 13.1443 5.7211 12.6056 5.98519 12.0766C6.25912 11.5278 6.48914 10.8923 6.48914 10.1795H4.98914Z" fill="#A5A5A5"/>
<path d="M14 20.834C13.5326 21.5369 12.7335 22.0002 11.8261 22.0002C10.9187 22.0002 10.1195 21.5369 9.65218 20.834" stroke="#A5A5A5" stroke-width="1.5" stroke-linecap="round"/>
</svg>
