<svg width="24" height="24" viewBox="0 0 24 24" fill="none" xmlns="http://www.w3.org/2000/svg">
<path d="M2.00002 8.42871C2.00002 7.32414 2.89545 6.42871 4.00002 6.42871H20C21.1046 6.42871 22 7.32414 22 8.42871V10.0835C22 10.9667 21.4207 11.7453 20.5747 11.9991L13.1494 14.2267C12.3996 14.4516 11.6004 14.4516 10.8506 14.2267L3.42532 11.9991C2.57935 11.7453 2.00002 10.9667 2.00002 10.0835V8.42871Z" stroke="#A5A5A5" stroke-width="1.5"/>
<path d="M12 11.5717L12 9.85742" stroke="#A5A5A5" stroke-width="1.5" stroke-linecap="round" stroke-linejoin="round"/>
<path d="M2.83339 11.5713L2.83339 16.9998C2.83339 19.2089 4.62425 20.9998 6.83339 20.9998H17.1667C19.3759 20.9998 21.1667 19.2089 21.1667 16.9998V11.5713" stroke="#A5A5A5" stroke-width="1.5"/>
<path d="M15.3333 6.42855V5C15.3333 3.89543 14.4379 3 13.3333 3H10.6667C9.56209 3 8.66666 3.89543 8.66666 5L8.66666 6.42855" stroke="#A5A5A5" stroke-width="1.5"/>
</svg>
