<svg width="24" height="24" viewBox="0 0 24 24" fill="none" xmlns="http://www.w3.org/2000/svg">
<path d="M10 14H10.5V13.5H10V14ZM4.64645 18.6464C4.45118 18.8417 4.45118 19.1583 4.64645 19.3536C4.84171 19.5488 5.15829 19.5488 5.35355 19.3536L4.64645 18.6464ZM10.5 20V14H9.5V20H10.5ZM10 13.5H4V14.5H10V13.5ZM9.64645 13.6464L4.64645 18.6464L5.35355 19.3536L10.3536 14.3536L9.64645 13.6464Z" fill="#222222"/>
<path d="M14 10H13.5V10.5H14V10ZM19.3536 5.35355C19.5488 5.15829 19.5488 4.84171 19.3536 4.64645C19.1583 4.45118 18.8417 4.45118 18.6464 4.64645L19.3536 5.35355ZM13.5 4V10H14.5V4H13.5ZM14 10.5H20V9.5H14V10.5ZM14.3536 10.3536L19.3536 5.35355L18.6464 4.64645L13.6464 9.64645L14.3536 10.3536Z" fill="#222222"/>
</svg>
