<svg width="16" height="16" viewBox="0 0 16 16" fill="none" xmlns="http://www.w3.org/2000/svg">
<path fill-rule="evenodd" clip-rule="evenodd" d="M7.98166 13.5786C5.82233 13.5786 3.97766 13.252 3.97766 11.944C3.97766 10.636 5.81033 9.49731 7.98166 9.49731C10.141 9.49731 11.9857 10.6253 11.9857 11.9326C11.9857 13.24 10.153 13.5786 7.98166 13.5786Z" stroke="#A5A5A5" stroke-width="1.5" stroke-linecap="round" stroke-linejoin="round"/>
<path fill-rule="evenodd" clip-rule="evenodd" d="M7.98166 7.63242C9.39899 7.63242 10.5483 6.48376 10.5483 5.06642C10.5483 3.64909 9.39899 2.49976 7.98166 2.49976C6.56432 2.49976 5.41499 3.64909 5.41499 5.06642C5.41099 6.47842 6.55099 7.62776 7.96366 7.63242H7.98166Z" stroke="#A5A5A5" stroke-width="1.5" stroke-linecap="round" stroke-linejoin="round"/>
<path d="M12.2415 6.92777C13.0661 6.70711 13.6741 5.9551 13.6741 5.05977C13.6741 4.12577 13.0121 3.34577 12.1308 3.16577" stroke="#A5A5A5" stroke-width="1.5" stroke-linecap="round" stroke-linejoin="round"/>
<path d="M12.6288 9.02954C13.7981 9.02954 14.7968 9.82221 14.7968 10.5302C14.7968 10.9469 14.4521 11.4009 13.9295 11.5235" stroke="#A5A5A5" stroke-width="1.5" stroke-linecap="round" stroke-linejoin="round"/>
<path d="M3.72252 6.92777C2.89718 6.70711 2.28918 5.9551 2.28918 5.05977C2.28918 4.12577 2.95185 3.34577 3.83252 3.16577" stroke="#A5A5A5" stroke-width="1.5" stroke-linecap="round" stroke-linejoin="round"/>
<path d="M3.3345 9.02954C2.16517 9.02954 1.1665 9.82221 1.1665 10.5302C1.1665 10.9469 1.51117 11.4009 2.0345 11.5235" stroke="#A5A5A5" stroke-width="1.5" stroke-linecap="round" stroke-linejoin="round"/>
</svg>
