<svg width="16" height="16" viewBox="0 0 16 16" fill="none" xmlns="http://www.w3.org/2000/svg">
<path fill-rule="evenodd" clip-rule="evenodd" d="M7.8964 14.4414C5.43519 14.4414 3.33337 14.0584 3.33337 12.5245C3.33337 10.9907 5.42186 9.57471 7.8964 9.57471C10.3576 9.57471 12.4594 10.9769 12.4594 12.5108C12.4594 14.044 10.3709 14.4414 7.8964 14.4414Z" stroke="#A5A5A5" stroke-width="1.5" stroke-linecap="round" stroke-linejoin="round"/>
<path fill-rule="evenodd" clip-rule="evenodd" d="M7.89154 7.44919C9.50669 7.44919 10.8158 6.1401 10.8158 4.52495C10.8158 2.90979 9.50669 1.6001 7.89154 1.6001C6.27639 1.6001 4.96669 2.90979 4.96669 4.52495C4.96124 6.13464 6.26124 7.44373 7.87093 7.44919C7.87821 7.44919 7.88487 7.44919 7.89154 7.44919Z" stroke="#A5A5A5" stroke-width="1.5" stroke-linecap="round" stroke-linejoin="round"/>
</svg>
