<svg width="35" height="35" viewBox="0 0 35 35" fill="none" xmlns="http://www.w3.org/2000/svg">
<rect width="34.5" height="34.5" rx="8" fill="#4662AD"/>
<path d="M17.25 8C10.313 8 8 10.313 8 17.25C8 24.187 10.313 26.5 17.25 26.5C24.187 26.5 26.5 24.187 26.5 17.25" stroke="white" stroke-width="1.5" stroke-linecap="round" stroke-linejoin="round"/>
<path fill-rule="evenodd" clip-rule="evenodd" d="M24.7783 9.55376V9.55376C23.7853 8.67476 22.2683 8.76676 21.3893 9.75976C21.3893 9.75976 17.0203 14.6948 15.5053 16.4078C13.9883 18.1198 15.1003 20.4848 15.1003 20.4848C15.1003 20.4848 17.6043 21.2778 19.0983 19.5898C20.5933 17.9018 24.9843 12.9428 24.9843 12.9428C25.8633 11.9498 25.7703 10.4328 24.7783 9.55376Z" stroke="white" stroke-width="1.5" stroke-linecap="round" stroke-linejoin="round"/>
<path d="M20.2588 11.0507L23.8538 14.2337" stroke="white" stroke-width="1.5" stroke-linecap="round" stroke-linejoin="round"/>
</svg>
