<svg width="24" height="24" viewBox="0 0 24 24" fill="none" xmlns="http://www.w3.org/2000/svg">
<path fill-rule="evenodd" clip-rule="evenodd" d="M4.00002 6.42871C2.89545 6.42871 2.00002 7.32414 2.00002 8.42871V10.0835C2.00002 10.9667 2.57935 11.7453 3.42532 11.9991L10.8506 14.2267C11.6004 14.4516 12.3996 14.4516 13.1494 14.2267L20.5747 11.9991C21.4207 11.7453 22 10.9667 22 10.0835V8.42871C22 7.32414 21.1046 6.42871 20 6.42871H4.00002ZM12.75 9.85742C12.75 9.44321 12.4142 9.10742 12 9.10742C11.5858 9.10742 11.25 9.44321 11.25 9.85742V11.5717C11.25 11.9859 11.5858 12.3217 12 12.3217C12.4142 12.3217 12.75 11.9859 12.75 11.5717V9.85742Z" fill="white"/>
<path fill-rule="evenodd" clip-rule="evenodd" d="M2.08351 13.0125V16.9999C2.08351 19.6232 4.21016 21.7499 6.83351 21.7499H17.1668C19.7902 21.7499 21.9168 19.6232 21.9168 16.9999V13.0123C21.6401 13.1934 21.3344 13.3373 21.0057 13.4359L13.5804 15.6635C12.5495 15.9728 11.4505 15.9728 10.4196 15.6635L2.9943 13.4359C2.66573 13.3374 2.36014 13.1935 2.08351 13.0125ZM2.14512 10.8318L12.0002 12.5001L21.8549 10.8318C21.6323 11.383 21.1694 11.8208 20.5747 11.9992L13.1494 14.2268C12.3996 14.4517 11.6004 14.4517 10.8506 14.2268L3.42532 11.9992C2.8306 11.8208 2.36765 11.383 2.14512 10.8318ZM11.9995 13.9999L12.0001 14L12 14.0001L11.9995 13.9999Z" fill="white"/>
<path d="M15.3333 6.42855V5C15.3333 3.89543 14.4379 3 13.3333 3H10.6667C9.56209 3 8.66666 3.89543 8.66666 5L8.66666 6.42855" stroke="white" stroke-width="1.5"/>
</svg>
